<?xml version="1.0" standalone="no"?>
<!DOCTYPE svg PUBLIC "-//W3C//DTD SVG 20010904//EN"
 "http://www.w3.org/TR/2001/REC-SVG-20010904/DTD/svg10.dtd">
<svg version="1.0" xmlns="http://www.w3.org/2000/svg"
 width="159.000000pt" height="159.000000pt" viewBox="0 0 159.000000 159.000000"
 preserveAspectRatio="xMidYMid meet">
<metadata>
Created by potrace 1.16, written by Peter Selinger 2001-2019
</metadata>
<g transform="translate(0.000000,159.000000) scale(0.100000,-0.100000)"
fill="#000000" stroke="none">
<path d="M665 1465 c-110 -45 -177 -141 -192 -277 -5 -54 -8 -58 -52 -87 -109
-72 -161 -142 -161 -214 0 -42 4 -53 34 -83 19 -19 44 -34 56 -34 l21 0 -20
26 c-12 15 -21 40 -21 56 0 119 202 238 575 338 230 62 396 128 463 184 37 32
43 71 12 81 -54 17 -305 -59 -415 -125 -127 -77 -332 -159 -368 -147 -6 2 18
11 54 21 90 26 272 112 267 128 -2 7 -28 26 -58 41 -49 25 -63 28 -130 25 -57
-3 -88 -10 -129 -31 -66 -34 -51 -11 18 27 74 40 148 51 222 32 33 -9 76 -27
96 -40 33 -23 63 -25 63 -6 0 17 -77 71 -128 90 -70 26 -134 25 -207 -5z"/>
<path d="M851 1155 c-24 -7 -55 -25 -70 -38 -14 -14 -51 -40 -81 -57 -125 -73
-192 -154 -221 -268 -10 -37 -18 -58 -18 -47 -1 38 28 135 53 172 36 57 104
118 171 153 89 47 103 66 30 39 -98 -35 -196 -84 -255 -126 l-55 -39 -15 -89
c-9 -50 -12 -103 -8 -120 3 -16 12 -56 18 -88 16 -81 79 -201 144 -272 29 -33
56 -58 59 -55 3 3 -10 31 -29 63 -51 87 -75 167 -76 256 -1 95 20 162 68 216
19 22 29 29 21 15 -54 -93 -68 -281 -29 -385 31 -82 90 -149 166 -187 109 -54
155 -101 157 -160 0 -22 1 -22 9 -3 11 27 12 106 1 124 -6 9 -2 25 10 45 38
63 19 111 -61 151 -45 23 -79 59 -67 71 3 3 22 -2 42 -10 37 -16 37 -16 23 5
-7 12 -36 34 -63 49 -56 30 -81 70 -91 141 -6 47 7 113 29 143 13 17 15 15 39
-25 43 -74 53 -119 34 -163 -13 -32 -13 -36 -2 -26 25 20 38 75 28 114 -8 28
-7 38 7 50 23 21 47 20 136 -6 58 -17 78 -19 87 -10 9 9 6 12 -14 12 -15 0
-47 9 -73 20 -55 24 -118 26 -135 5 -19 -23 -25 -19 -50 34 l-23 50 51 64 c27
35 57 78 66 95 21 40 56 42 98 7 39 -33 51 -32 88 8 30 31 30 32 36 10 10 -37
24 -26 24 17 0 41 -7 49 -28 28 -10 -10 -19 -8 -42 6 -30 17 -32 17 -71 -3
-61 -32 -87 -27 -52 11 15 17 15 18 -3 17 -10 0 -39 -6 -63 -14z"/>
</g>
</svg>
