<?xml version="1.0" standalone="no"?>
<!DOCTYPE svg PUBLIC "-//W3C//DTD SVG 20010904//EN"
 "http://www.w3.org/TR/2001/REC-SVG-20010904/DTD/svg10.dtd">
<svg version="1.0" xmlns="http://www.w3.org/2000/svg"
 width="287.000000pt" height="299.000000pt" viewBox="0 0 287.000000 299.000000"
 preserveAspectRatio="xMidYMid meet">
<metadata>
Created by potrace 1.16, written by Peter Selinger 2001-2019
</metadata>
<g transform="translate(0.000000,299.000000) scale(0.100000,-0.100000)"
fill="#000000" stroke="none">
<path d="M1221 2741 c-39 -39 -71 -114 -71 -166 0 -40 28 -117 64 -175 20 -32
36 -66 36 -77 0 -10 -14 -38 -30 -63 -44 -65 -54 -111 -36 -155 8 -19 17 -35
19 -35 3 0 23 24 45 53 22 28 59 72 82 97 34 37 40 50 36 74 -3 16 -6 38 -6
51 0 13 -10 27 -25 35 -76 41 -73 248 6 304 22 15 24 15 47 -12 13 -15 37 -47
53 -72 l30 -45 -7 -152 c-7 -151 -6 -153 14 -153 12 0 38 11 58 25 49 33 66
32 103 -10 38 -43 55 -76 71 -135 11 -38 14 -42 21 -25 13 33 10 94 -6 125 -9
17 -35 52 -60 80 -48 55 -47 51 -70 190 -21 123 -47 169 -117 203 -194 94
-200 95 -257 38z"/>
<path d="M1548 2269 c-9 -5 -45 -45 -78 -88 -34 -44 -69 -82 -78 -86 -20 -8
-62 36 -62 66 0 30 -16 23 -53 -23 -78 -97 -84 -139 -28 -201 21 -23 43 -52
50 -64 16 -30 74 -31 193 -1 86 21 88 22 94 55 4 19 8 32 10 30 3 -2 -2 -46
-11 -98 -8 -52 -15 -130 -14 -174 l1 -80 48 100 c59 120 84 214 84 320 1 162
-80 289 -156 244z"/>
<path d="M1495 1770 c-16 -4 -72 -8 -123 -9 l-93 -1 -59 -62 c-70 -75 -117
-161 -130 -242 -5 -33 -7 -62 -5 -65 13 -12 185 193 224 267 7 13 15 21 18 18
9 -9 -103 -202 -162 -280 -30 -39 -106 -123 -170 -186 -140 -138 -173 -195
-182 -314 -3 -42 -2 -76 3 -76 5 0 25 28 44 61 35 62 207 251 263 291 18 12
-2 -14 -45 -60 -184 -197 -246 -360 -184 -481 40 -76 166 -179 286 -233 25
-11 57 -27 72 -34 l27 -14 -21 58 c-32 86 -31 280 0 377 33 100 145 315 158
302 2 -2 -12 -39 -31 -83 -67 -157 -88 -246 -89 -379 -1 -117 0 -122 32 -187
46 -93 120 -157 286 -248 148 -80 175 -102 185 -152 6 -30 10 -24 44 80 46
142 56 241 33 332 -25 97 -51 137 -236 365 -105 129 -117 153 -46 87 105 -95
176 -144 238 -164 34 -10 63 -16 65 -14 10 10 -42 170 -68 209 -16 25 -52 60
-80 80 -27 19 -47 37 -42 40 5 3 37 10 71 17 66 12 112 28 112 40 0 3 -30 19
-67 34 -100 41 -210 112 -238 155 -38 58 -48 131 -43 297 3 82 9 157 13 167 8
19 -6 21 -60 7z"/>
</g>
</svg>
